<?xml version="1.0" standalone="no"?>
<!DOCTYPE svg PUBLIC "-//W3C//DTD SVG 20010904//EN"
 "http://www.w3.org/TR/2001/REC-SVG-20010904/DTD/svg10.dtd">
<svg version="1.0" xmlns="http://www.w3.org/2000/svg"
 width="1024" height="1024" viewBox="0 0 1024.000000 1024.000000"
 preserveAspectRatio="xMidYMid meet">
<metadata>
Created by potrace 1.16, written by Peter Selinger 2001-2019
</metadata>
<g transform="translate(0.000000,1024.000000) scale(0.100000,-0.100000)"
fill="#000000" stroke="none">
<path d="M0 5120 l0 -5120 5120 0 5120 0 0 5120 0 5120 -5120 0 -5120 0 0
-5120z m4937 2805 c31 -55 31 -103 -1 -111 -34 -8 -44 1 -67 53 -22 52 -24 74
-7 91 22 22 52 9 75 -33z m514 -418 c9 -20 6 -34 -20 -84 -16 -33 -37 -63 -46
-66 -23 -9 -44 2 -51 27 -5 20 26 105 48 134 17 21 57 14 69 -11z m-1227 -10
c8 -13 -2 -92 -43 -336 -29 -176 -51 -325 -49 -332 5 -15 64 56 107 129 48 81
80 167 97 262 22 115 29 130 58 130 31 0 96 -71 136 -149 47 -94 63 -178 57
-301 -6 -113 -26 -186 -76 -275 -23 -40 -27 -55 -18 -70 31 -56 -82 -330 -180
-436 l-23 -25 29 -55 c16 -30 41 -88 56 -130 23 -67 30 -77 60 -88 30 -10 42
-27 99 -141 68 -132 76 -159 53 -179 -55 -45 -381 -62 -487 -25 -47 16 -58 25
-75 60 -11 23 -28 51 -38 62 -18 20 -19 20 -51 1 -81 -47 -84 -86 -11 -137 47
-33 57 -60 30 -82 -39 -33 -157 52 -170 124 -10 49 19 103 76 145 l47 34 -55
66 c-63 77 -72 104 -50 144 17 28 17 29 -32 89 -86 106 -168 296 -207 476 -22
104 -30 301 -15 388 33 191 105 335 228 457 75 74 134 115 223 156 129 60 203
72 224 38z m2171 -53 c52 -31 110 -77 166 -133 71 -72 94 -104 133 -182 59
-121 77 -189 83 -319 6 -127 -13 -252 -61 -392 -60 -176 -204 -394 -328 -498
-61 -51 -65 -57 -52 -75 26 -36 17 -64 -40 -119 l-54 -53 48 -41 c131 -113 66
-239 -165 -317 -93 -31 -135 -35 -155 -15 -29 29 -15 58 34 70 82 22 112 33
179 68 101 52 111 90 35 138 -53 33 -79 27 -103 -27 -24 -52 -70 -76 -176 -91
-152 -21 -410 20 -417 67 -3 24 103 224 148 278 18 21 40 37 53 37 18 1 30 17
61 84 21 46 55 106 76 133 l38 50 -34 69 c-66 135 -102 376 -62 421 15 17 15
22 -3 77 -75 222 10 512 192 656 54 43 92 51 108 23 5 -10 7 -58 4 -109 -9
-144 15 -270 77 -408 17 -38 24 -46 31 -34 5 8 18 156 29 329 11 173 25 324
30 337 14 32 36 28 125 -24z m-1328 -532 c35 -68 41 -88 32 -104 -7 -13 -19
-18 -37 -16 -50 6 -122 157 -92 194 27 32 53 12 97 -74z m537 -460 c68 -8 96
-34 73 -66 -13 -18 -27 -18 -289 -6 -222 10 -325 10 -527 0 -265 -13 -281 -11
-281 30 0 31 25 40 136 49 121 10 795 5 888 -7z m-2074 -257 c24 -29 0 -50
-123 -108 -283 -134 -442 -278 -483 -436 -13 -52 -14 -75 -5 -117 25 -125 117
-239 280 -348 122 -81 202 -121 371 -184 631 -235 1542 -304 2376 -182 246 36
515 102 700 170 489 182 738 429 669 666 -45 156 -193 290 -472 425 -66 33
-124 67 -127 75 -9 24 12 54 38 54 28 0 267 -116 340 -165 130 -87 241 -205
286 -306 21 -46 25 -69 25 -159 0 -93 -3 -111 -27 -163 -29 -62 -95 -152 -151
-206 l-36 -34 44 -121 c24 -66 80 -222 125 -346 142 -391 132 -354 114 -408
-36 -106 -150 -386 -208 -507 -155 -325 -374 -628 -582 -808 -46 -40 -84 -77
-84 -82 0 -6 32 -100 70 -210 85 -240 91 -276 60 -340 -31 -63 -84 -98 -153
-99 -72 -1 -99 17 -283 186 -84 77 -162 147 -172 154 -16 11 -32 7 -113 -25
-294 -119 -669 -182 -979 -167 -300 15 -535 65 -808 173 l-93 37 -67 -66 c-37
-35 -119 -112 -184 -170 -93 -84 -125 -107 -162 -117 -87 -22 -168 16 -206 95
-30 62 -26 87 63 341 l74 213 -88 76 c-93 81 -208 208 -301 332 -159 211 -362
615 -479 954 -29 82 -32 67 97 421 52 144 114 313 136 376 l40 113 -55 52
c-147 141 -198 303 -147 467 24 79 62 136 142 217 99 99 204 165 438 274 44
21 84 22 100 3z m2100 -5 c69 -7 98 -14 108 -27 15 -21 15 -25 -1 -47 -13 -18
-23 -18 -198 -6 -243 17 -597 17 -842 0 -178 -12 -199 -12 -213 2 -21 20 -10
55 19 64 12 4 90 13 172 20 172 15 802 11 955 -6z m-154 -195 c87 -9 166 -18
176 -21 34 -10 34 -68 0 -76 -10 -3 -42 -1 -72 4 -30 4 -199 11 -375 14 -321
6 -334 5 -672 -33 -50 -5 -53 -4 -65 22 -11 24 -10 29 9 45 20 16 44 19 348
54 92 10 510 4 651 -9z m-1844 -40 c16 -35 -5 -54 -99 -93 -209 -86 -333 -195
-333 -292 0 -86 91 -176 265 -261 246 -120 587 -203 1045 -255 226 -25 851
-31 1109 -10 338 28 568 68 842 147 367 105 579 242 579 374 0 91 -90 179
-270 266 -69 33 -136 66 -150 72 -30 15 -37 49 -15 67 23 19 84 2 210 -59 385
-187 417 -447 79 -644 -172 -101 -490 -199 -829 -256 -480 -81 -1116 -95
-1635 -35 -632 71 -1145 254 -1271 452 -98 155 -43 297 169 429 76 47 243 122
275 123 9 0 23 -11 29 -25z m1620 -135 c117 -12 194 -37 224 -73 13 -16 24
-37 24 -46 0 -29 -38 -70 -88 -95 -57 -29 -87 -60 -78 -81 3 -9 40 -31 81 -50
77 -36 96 -55 78 -84 -16 -25 -59 -25 -116 2 -171 79 -180 209 -18 283 22 11
41 22 41 25 0 14 -123 31 -252 36 -151 6 -170 13 -150 58 16 35 91 43 254 25z
m1342 -52 c124 -66 188 -157 172 -243 -13 -69 -123 -161 -248 -209 -58 -23
-88 -15 -88 23 0 26 9 33 94 75 199 98 207 181 27 275 -79 41 -97 63 -79 95
14 25 54 19 122 -16z m-2880 -4 c30 -30 16 -58 -44 -89 -50 -25 -110 -86 -110
-111 0 -28 29 -70 64 -95 42 -28 46 -36 35 -66 -19 -53 -125 0 -168 84 -16 32
-13 110 5 149 20 42 83 96 145 123 53 25 54 25 73 5z m1091 -98 c85 -56 106
-134 56 -204 -24 -35 -133 -95 -163 -90 -26 4 -43 30 -35 51 3 9 28 27 54 41
105 53 108 93 11 147 -64 35 -79 58 -57 85 19 23 72 11 134 -30z m-438 -376
c273 -53 678 -74 967 -51 160 13 176 10 176 -35 0 -13 -8 -27 -17 -33 -10 -5
-99 -14 -198 -21 -208 -15 -497 -9 -685 15 -156 19 -349 54 -372 66 -31 16
-17 79 17 79 5 0 56 -9 112 -20z"/>
<path d="M4058 7391 c-87 -37 -180 -104 -251 -181 -184 -198 -231 -560 -115
-888 54 -154 147 -313 201 -343 10 -6 28 17 66 81 28 49 60 94 71 100 27 14
71 12 120 -5 23 -8 46 -15 51 -15 17 0 82 77 115 137 34 61 94 211 94 237 0 7
-19 21 -42 32 -23 10 -94 53 -158 95 -101 66 -120 83 -140 123 -31 64 -29 101
20 375 23 128 40 244 38 257 l-3 23 -67 -28z"/>
<path d="M4420 7171 c0 -25 -45 -151 -75 -211 -13 -25 -51 -83 -85 -129 -34
-46 -60 -84 -58 -86 11 -9 149 -95 175 -109 l33 -16 34 67 c47 94 60 162 54
280 -4 72 -12 114 -29 157 -25 61 -49 84 -49 47z"/>
<path d="M4063 6068 c-6 -7 -25 -41 -43 -76 -31 -58 -90 -124 -121 -134 -15
-5 -4 -20 113 -147 l58 -64 68 27 c73 28 182 92 182 106 0 22 -81 235 -94 248
-16 16 -110 52 -137 52 -9 0 -21 -6 -26 -12z"/>
<path d="M4361 5695 c-39 -29 -184 -103 -236 -121 -18 -6 -17 -7 10 -16 46
-13 233 -21 295 -11 66 10 66 16 12 114 l-37 66 -44 -32z"/>
<path d="M6340 7339 c0 -83 -32 -490 -42 -533 -17 -75 -69 -121 -198 -174 -58
-24 -133 -51 -165 -61 l-60 -18 2 -69 c3 -98 28 -198 67 -274 l34 -65 79 3
c103 4 122 -9 157 -116 38 -111 38 -111 81 -78 146 112 309 364 364 566 32
118 45 254 32 340 -21 132 -73 254 -149 349 -36 44 -175 161 -193 161 -5 0 -9
-14 -9 -31z"/>
<path d="M5958 7165 c-63 -92 -89 -169 -95 -280 -5 -87 14 -206 36 -228 10
-10 227 76 224 89 -1 5 -18 46 -38 91 -41 93 -62 185 -73 311 l-7 86 -47 -69z"/>
<path d="M6003 6051 c-23 -4 -49 -13 -57 -21 -22 -17 -79 -120 -106 -190 l-22
-55 34 -28 c18 -15 71 -47 118 -72 l86 -44 70 55 c38 31 81 67 96 81 l28 26
-34 33 c-32 31 -57 84 -86 182 -12 40 -15 42 -49 41 -20 -1 -55 -5 -78 -8z"/>
<path d="M5675 5654 c-36 -66 -44 -88 -34 -94 36 -23 339 -24 362 -1 5 5 -20
22 -55 38 -35 17 -98 56 -141 87 -43 31 -80 56 -82 56 -2 0 -25 -39 -50 -86z"/>
<path d="M2986 4740 c-104 -285 -137 -388 -133 -410 9 -45 99 -272 167 -420
148 -326 332 -603 522 -786 194 -187 345 -291 600 -413 207 -100 405 -161 639
-198 171 -27 539 -25 709 5 408 70 748 221 1055 469 254 205 455 468 632 828
82 168 213 493 213 530 0 25 -260 758 -274 773 -2 1 -30 -14 -62 -34 -468
-285 -1291 -438 -2173 -403 -695 27 -1318 174 -1685 397 -37 23 -69 42 -70 42
-2 0 -65 -171 -140 -380z m290 -708 c6 -4 45 -74 87 -155 184 -359 431 -627
752 -818 81 -48 105 -67 105 -84 0 -25 -18 -45 -40 -45 -25 0 -187 97 -290
173 -176 132 -392 370 -510 562 -68 110 -160 299 -160 328 0 33 32 55 56 39z"/>
<path d="M3711 2827 c-4 -12 -37 -106 -72 -208 -72 -211 -73 -228 -7 -264 34
-18 39 -18 70 -3 31 14 338 285 338 297 0 3 -33 24 -72 46 -39 22 -111 66
-160 97 -86 56 -89 57 -97 35z"/>
<path d="M6450 2804 c-36 -25 -106 -70 -157 -101 l-92 -55 62 -57 c265 -246
279 -257 328 -246 35 8 69 48 69 82 0 27 -131 423 -140 422 -3 0 -34 -21 -70
-45z"/>
</g>
</svg>
