<?xml version="1.0" standalone="no"?>
<!DOCTYPE svg PUBLIC "-//W3C//DTD SVG 20010904//EN"
 "http://www.w3.org/TR/2001/REC-SVG-20010904/DTD/svg10.dtd">
<svg version="1.0" xmlns="http://www.w3.org/2000/svg"
 width="1024" height="1024" viewBox="0 0 1024.000000 1024.000000"
 preserveAspectRatio="xMidYMid meet">
<metadata>
Created by potrace 1.16, written by Peter Selinger 2001-2019
</metadata>
<g transform="translate(0.000000,1024.000000) scale(0.100000,-0.100000)"
fill="#FFB84D" stroke="none">
<path d="M4862 7958 c-18 -18 -15 -52 10 -103 18 -37 27 -45 50 -45 40 0 51
28 33 81 -25 71 -62 98 -93 67z"/>
<path d="M5387 7522 c-22 -25 -57 -103 -57 -130 0 -31 42 -51 66 -31 18 15 64
110 64 133 0 15 -32 46 -47 46 -5 0 -17 -8 -26 -18z"/>
<path d="M4073 7491 c-258 -90 -438 -290 -509 -566 -23 -92 -25 -113 -21 -255
5 -165 21 -257 72 -400 40 -111 108 -238 160 -297 44 -50 46 -54 31 -75 -9
-12 -16 -33 -16 -46 0 -25 50 -100 93 -141 l26 -23 -42 -32 c-107 -81 -114
-164 -22 -244 40 -36 81 -50 104 -35 33 21 25 46 -30 94 -53 47 -54 48 -39 74
8 15 32 36 52 48 36 20 38 20 57 3 11 -10 23 -31 26 -46 16 -72 86 -95 290
-94 172 0 285 23 299 61 3 8 -27 78 -67 156 -64 127 -75 143 -104 152 -30 8
-35 16 -54 77 -12 38 -36 97 -54 132 l-31 63 37 41 c44 50 106 168 144 272 20
56 26 87 22 124 -4 42 1 61 29 117 44 88 64 174 64 284 0 156 -45 279 -136
373 -51 53 -54 54 -76 40 -18 -12 -26 -32 -36 -94 -17 -104 -51 -199 -102
-287 -44 -76 -96 -144 -105 -136 -2 3 18 140 45 305 28 164 50 315 50 335 0
59 -34 63 -157 20z m53 -128 c-4 -27 -25 -152 -47 -279 -44 -249 -44 -269 1
-342 19 -31 193 -153 289 -201 23 -12 41 -23 41 -25 0 -3 -14 -44 -31 -93 -36
-102 -93 -204 -141 -250 l-33 -32 -67 20 c-66 21 -68 21 -100 2 -20 -11 -50
-49 -80 -101 -27 -45 -53 -82 -57 -82 -18 0 -99 101 -133 167 -145 276 -178
608 -85 854 65 171 202 314 372 387 74 32 78 30 71 -25z m364 -323 c15 -80 12
-178 -8 -251 -19 -68 -66 -159 -82 -159 -11 0 -97 50 -158 92 l-44 30 24 27
c75 81 139 196 184 330 l28 84 23 -50 c13 -27 27 -74 33 -103z m-332 -982 c64
-22 65 -22 94 -86 16 -35 37 -93 46 -129 l17 -65 -25 -20 c-26 -22 -171 -93
-205 -101 -15 -4 -39 16 -102 88 -46 51 -83 97 -83 102 0 6 17 22 38 35 25 18
52 52 85 112 26 47 53 86 59 86 6 0 41 -10 76 -22z m292 -418 l40 -80 -25 -6
c-37 -9 -222 -10 -288 0 l-58 8 108 53 c59 30 122 65 138 79 17 14 33 25 37
26 4 0 26 -36 48 -80z"/>
<path d="M6272 7478 c-10 -13 -24 -162 -43 -475 -5 -89 -13 -173 -18 -185 -8
-21 -11 -18 -35 35 -54 120 -68 191 -70 351 -1 163 -6 176 -59 162 -36 -9
-129 -97 -176 -166 -101 -152 -133 -421 -65 -553 13 -24 13 -29 0 -43 -36 -35
-32 -150 10 -307 14 -51 38 -115 53 -142 l28 -50 -34 -40 c-19 -22 -55 -81
-80 -131 -38 -77 -50 -93 -73 -98 -34 -6 -63 -47 -143 -197 -70 -130 -67 -138
51 -166 93 -21 334 -25 399 -5 51 15 101 55 105 84 2 11 14 27 28 35 23 14 24
14 6 -1 -15 -12 -16 -16 -5 -16 8 0 20 5 25 10 12 12 70 -23 88 -52 23 -37
-70 -98 -216 -143 -88 -26 -106 -42 -92 -78 10 -26 38 -29 104 -12 188 49 300
131 300 222 0 37 -48 114 -83 132 -15 8 -27 17 -27 21 0 3 18 24 41 45 59 58
71 85 54 119 -14 26 -13 28 79 119 149 148 271 358 322 552 38 144 44 327 16
446 -54 225 -181 392 -383 503 -71 39 -91 43 -107 24z m165 -173 c93 -74 138
-131 188 -236 56 -120 68 -184 62 -334 -4 -101 -11 -150 -31 -220 -58 -193
-175 -386 -314 -516 -41 -38 -77 -69 -82 -69 -4 0 -22 40 -39 89 -46 130 -69
145 -187 127 l-50 -7 -31 58 c-17 32 -38 83 -47 114 -23 79 -38 219 -25 235 5
6 31 17 57 24 26 6 100 34 164 62 131 56 179 96 198 167 10 37 20 169 36 454
4 64 10 117 13 117 4 0 43 -29 88 -65z m-404 -326 c9 -36 32 -103 53 -149 34
-79 35 -84 18 -97 -27 -20 -174 -74 -192 -71 -46 9 -65 240 -28 348 25 72 51
125 90 176 l31 41 6 -91 c4 -50 14 -121 22 -157z m113 -1019 c26 -75 40 -102
68 -126 l37 -32 -96 -77 c-94 -77 -95 -77 -127 -65 -45 18 -136 68 -175 97
-31 23 -32 24 -19 61 17 48 73 159 97 194 14 20 33 29 72 36 104 20 105 19
143 -88z m-395 -236 c20 -24 126 -94 198 -130 l64 -33 -39 -7 c-50 -10 -235
-10 -297 0 l-48 7 48 90 c26 49 51 89 54 89 4 0 13 -7 20 -16z"/>
<path d="M4974 6993 c-25 -18 -22 -45 17 -122 21 -43 47 -82 56 -85 8 -4 27 1
40 10 30 19 27 34 -24 129 -37 68 -62 87 -89 68z"/>
<path d="M4886 6469 c-273 -10 -306 -16 -306 -60 0 -37 37 -47 140 -38 134 12
661 12 810 0 116 -9 126 -9 144 8 21 22 15 57 -12 65 -27 8 -263 25 -422 29
-80 2 -239 1 -354 -4z"/>
<path d="M3470 6209 c-14 -3 -64 -25 -112 -47 -257 -120 -420 -258 -496 -419
-24 -52 -27 -70 -27 -163 0 -102 1 -109 38 -182 24 -49 62 -103 106 -150 l69
-74 -145 -400 c-80 -219 -146 -412 -145 -429 1 -85 220 -582 356 -809 141
-233 288 -417 443 -552 43 -37 79 -71 81 -75 2 -5 -29 -100 -68 -211 -83 -236
-93 -293 -58 -353 46 -78 140 -113 221 -81 26 10 89 59 162 127 66 61 148 135
181 165 l61 54 57 -25 c183 -81 477 -153 716 -176 147 -14 407 -7 560 16 181
26 406 88 568 154 l69 29 164 -150 c90 -82 180 -160 199 -173 79 -55 187 -37
246 41 25 33 29 46 29 103 -1 56 -12 97 -74 273 l-73 206 43 39 c270 238 448
481 629 856 69 145 198 461 215 527 4 17 -3 51 -20 95 -33 89 -151 417 -219
607 l-53 147 44 43 c180 174 222 355 127 548 -69 139 -223 266 -462 382 -126
60 -165 68 -185 37 -19 -30 2 -48 130 -113 250 -125 380 -231 446 -365 87
-178 -3 -360 -265 -534 -423 -282 -1309 -450 -2155 -409 -535 26 -938 100
-1323 244 -289 107 -508 262 -595 419 -27 49 -30 62 -30 149 0 87 3 100 30
150 40 73 143 176 234 235 74 48 300 165 319 165 18 0 34 30 28 54 -7 27 -30
36 -66 25z m-168 -1190 c484 -246 1278 -377 2061 -341 680 32 1157 135 1567
340 96 48 178 88 181 90 8 3 55 -121 181 -473 70 -197 98 -287 94 -307 -12
-61 -151 -394 -230 -550 -252 -501 -568 -825 -1022 -1052 -318 -158 -632 -230
-1009 -230 -240 0 -372 15 -580 69 -179 46 -256 75 -430 160 -463 227 -767
537 -1024 1045 -134 264 -247 553 -236 599 4 14 46 134 94 266 49 132 108 295
132 362 l44 121 40 -24 c22 -14 84 -47 137 -75z m626 -2304 c62 -37 111 -69
110 -70 -2 -1 -59 -53 -128 -116 -197 -180 -196 -179 -239 -179 -31 0 -44 6
-65 31 -14 17 -26 37 -26 44 0 12 88 277 127 382 l15 41 47 -32 c25 -18 97
-63 159 -101z m2667 -79 c58 -172 68 -209 60 -233 -12 -33 -64 -62 -101 -55
-22 4 -319 260 -339 291 -3 6 15 23 41 38 25 16 94 60 153 98 58 39 109 70
112 69 3 -2 36 -95 74 -208z"/>
<path d="M3226 4019 c-13 -19 -13 -27 5 -73 89 -224 289 -510 493 -703 138
-131 330 -266 434 -305 36 -14 62 1 62 37 0 18 -20 34 -94 78 -135 81 -246
166 -359 276 -172 166 -310 357 -418 575 -70 143 -90 161 -123 115z"/>
<path d="M4643 6195 c-83 -7 -149 -17 -158 -25 -22 -18 -18 -47 8 -64 19 -12
46 -12 187 0 208 16 586 18 842 2 163 -9 200 -9 213 2 22 19 15 53 -15 66 -70
32 -781 45 -1077 19z"/>
<path d="M4895 6010 c-133 -8 -370 -35 -407 -46 -26 -8 -34 -52 -15 -72 15
-14 30 -14 179 4 194 23 738 26 896 6 66 -9 98 -9 112 -2 23 12 27 52 7 68
-35 29 -529 56 -772 42z"/>
<path d="M6605 5974 c-9 -9 -15 -28 -13 -42 3 -21 16 -31 88 -61 205 -87 311
-164 345 -254 26 -69 10 -115 -63 -187 -167 -163 -639 -309 -1207 -372 -162
-19 -251 -22 -610 -22 -274 -1 -465 3 -550 12 -769 76 -1322 269 -1387 485
-33 109 80 222 326 327 69 30 93 45 100 64 11 28 -6 56 -33 56 -53 0 -271
-109 -356 -178 -227 -184 -164 -406 162 -570 218 -111 602 -208 1003 -256 479
-58 1063 -52 1538 15 443 62 816 178 1008 315 271 192 222 425 -126 599 -64
32 -191 85 -205 85 -2 0 -11 -7 -20 -16z"/>
<path d="M5012 5814 c-24 -17 -29 -46 -9 -61 6 -6 71 -13 142 -16 128 -5 245
-23 245 -37 0 -4 -18 -15 -40 -25 -44 -20 -94 -70 -105 -105 -24 -74 44 -149
177 -196 48 -17 78 -5 78 30 0 29 -23 49 -82 71 -45 17 -88 48 -88 64 0 13 31
37 79 61 119 60 123 146 8 188 -111 42 -360 58 -405 26z"/>
<path d="M6492 5803 c-18 -7 -33 -39 -26 -58 4 -9 30 -28 58 -42 211 -106 204
-197 -22 -298 -70 -31 -89 -54 -72 -85 15 -28 54 -25 129 10 173 82 243 185
197 293 -29 70 -215 197 -264 180z"/>
<path d="M3630 5757 c-24 -12 -66 -42 -91 -67 -85 -82 -87 -169 -8 -255 52
-57 92 -72 119 -45 11 11 20 25 20 32 0 6 -23 32 -51 57 -80 72 -68 122 47
192 64 39 81 72 48 96 -23 17 -30 16 -84 -10z"/>
<path d="M4676 5705 c-33 -33 -20 -59 46 -96 99 -55 102 -82 14 -130 -66 -36
-80 -52 -72 -83 9 -37 57 -35 126 7 143 85 132 212 -25 290 -53 26 -72 29 -89
12z"/>
<path d="M4232 5298 c-16 -16 -15 -53 1 -67 18 -15 269 -57 449 -76 245 -25
776 -14 816 18 17 13 15 52 -3 67 -12 10 -50 10 -186 0 -296 -22 -703 1 -957
55 -88 18 -104 19 -120 3z"/>
</g>
</svg>
