<?xml version="1.0" standalone="no"?>
<!DOCTYPE svg PUBLIC "-//W3C//DTD SVG 20010904//EN"
 "http://www.w3.org/TR/2001/REC-SVG-20010904/DTD/svg10.dtd">
<svg version="1.0" xmlns="http://www.w3.org/2000/svg"
 width="1024" height="1024" viewBox="0 0 1024.000000 1024.000000"
 preserveAspectRatio="xMidYMid meet">
<metadata>
Created by potrace 1.16, written by Peter Selinger 2001-2019
</metadata>
<g transform="translate(0.000000,1024.000000) scale(0.100000,-0.100000)"
fill="#0E1A24" stroke="none">
<rect x="0" y="0" width="10240" height="10240" fill="#FFFFFF"/>
<path d="M0 5120 l0 -5120 5120 0 5120 0 0 5120 0 5120 -5120 0 -5120 0 0
-5120z m4945 2798 c30 -64 31 -80 5 -103 -32 -29 -64 -8 -89 60 -26 68 -17 95
30 95 26 0 33 -6 54 -52z m496 -388 c24 -13 24 -47 2 -97 -36 -79 -78 -103
-107 -62 -13 19 -13 27 5 73 37 94 55 109 100 86z m-1222 -16 c21 -15 23 -22
17 -68 -5 -36 -3 -47 4 -36 7 11 10 11 10 2 0 -18 42 -58 68 -66 12 -4 22 -13
22 -19 0 -6 7 -1 16 11 8 12 24 22 34 22 49 0 139 -119 181 -240 33 -96 33
-266 0 -370 -13 -41 -23 -86 -23 -98 1 -13 -5 -33 -13 -45 -10 -14 -15 -16
-15 -7 0 12 -2 12 -12 1 -10 -11 -10 -14 0 -18 6 -3 12 -9 12 -14 0 -6 -4 -7
-10 -4 -11 7 -11 -9 0 -45 6 -18 8 -20 9 -7 1 10 6 15 11 12 6 -4 8 -11 5 -16
-4 -5 -1 -9 4 -9 6 0 10 -18 9 -42 -2 -24 1 -49 6 -56 5 -8 2 -20 -7 -30 -8
-9 -12 -24 -9 -32 2 -8 1 -12 -3 -8 -11 11 -31 -20 -40 -59 -6 -29 -4 -33 15
-33 12 0 19 -3 17 -7 -5 -8 32 -7 103 2 19 2 54 5 78 6 23 1 45 5 48 10 3 5
21 9 40 9 24 0 34 4 31 13 -2 6 3 17 12 24 13 10 9 13 -26 19 -24 3 -43 10
-43 15 0 5 -12 9 -27 9 -35 0 -22 11 24 21 23 5 -2 6 -62 3 -92 -5 -102 -4
-119 14 -20 23 -15 57 13 71 51 28 611 39 893 17 171 -12 193 -19 202 -59 3
-14 4 -11 3 8 -1 19 7 39 20 52 11 11 26 29 32 39 9 17 12 17 22 4 8 -11 9 -1
4 40 -15 132 -16 185 -5 170 8 -11 9 -8 3 15 -15 59 -7 207 16 290 30 108 72
182 145 258 96 101 156 120 178 57 l9 -28 41 18 c25 11 46 30 56 49 8 17 17
29 21 26 3 -3 10 13 16 37 8 36 14 44 37 46 54 6 195 -84 289 -186 109 -118
172 -249 199 -414 20 -129 3 -284 -51 -453 -19 -61 -25 -91 -17 -96 6 -4 8
-11 5 -15 -3 -5 -2 -28 3 -52 4 -25 3 -45 -2 -48 -14 -9 -31 -56 -29 -78 2
-10 -8 -30 -21 -45 -12 -14 -16 -20 -8 -13 25 22 48 15 42 -13 -6 -33 11 -32
33 1 11 18 12 24 4 18 -12 -6 -12 -5 -1 8 11 14 10 18 -7 28 -30 16 -29 67 3
81 19 9 38 5 107 -25 267 -116 460 -272 538 -435 34 -71 36 -82 36 -171 0 -89
-2 -100 -37 -170 -20 -41 -54 -97 -75 -125 -21 -27 -32 -45 -24 -41 11 7 12 3
6 -20 -5 -16 -14 -60 -20 -99 -7 -38 -13 -66 -14 -61 -1 5 -3 7 -6 4 -5 -5
110 -335 211 -605 19 -51 34 -103 34 -116 0 -26 -94 -279 -158 -423 -121 -274
-264 -517 -405 -689 -95 -116 -202 -234 -213 -234 -5 -1 -23 -15 -40 -33 -16
-18 -22 -27 -13 -20 15 11 16 7 4 -49 -9 -41 -10 -71 -4 -86 12 -31 12 -56 0
-49 -5 4 -7 -3 -4 -14 3 -11 10 -17 16 -13 6 3 7 1 3 -6 -11 -17 43 -173 56
-165 6 4 8 2 4 -4 -3 -6 1 -37 9 -69 17 -66 13 -101 -20 -158 -30 -52 -88 -85
-149 -85 -66 0 -103 19 -181 91 -37 35 -69 63 -71 62 -16 -11 -89 51 -79 67 3
5 0 12 -6 16 -8 5 -9 3 -4 -6 5 -9 4 -11 -3 -6 -7 4 -12 13 -12 19 0 7 -8 13
-17 14 -10 1 -49 9 -88 18 -38 9 -88 14 -109 11 -29 -3 -36 -2 -25 6 11 8 10
9 -4 4 -10 -3 -23 -6 -28 -6 -6 0 -7 -5 -3 -12 4 -7 3 -8 -4 -4 -6 4 -49 -4
-94 -18 -242 -74 -470 -108 -718 -109 -246 -2 -479 32 -717 103 -54 16 -102
26 -107 23 -5 -3 -6 -1 -3 4 4 6 -1 13 -11 15 -26 7 -193 -10 -222 -23 -24
-11 -24 -11 -6 10 11 12 17 21 15 21 -3 0 -21 -17 -40 -37 -18 -20 -25 -31
-14 -23 19 15 19 15 0 -10 -25 -34 -74 -73 -91 -73 -8 0 -46 -29 -84 -63 -87
-78 -116 -94 -176 -94 -69 0 -129 32 -160 85 -26 46 -30 73 -21 165 3 30 6 62
6 70 1 12 3 12 10 1 6 -9 13 1 26 35 35 101 44 135 33 128 -7 -5 -9 12 -4 59
10 90 -5 137 -70 217 -30 37 -54 72 -54 77 0 5 -12 20 -26 34 -14 13 -60 67
-102 119 -42 52 -87 105 -102 118 -14 13 -20 21 -13 17 7 -3 -24 54 -69 127
-70 115 -198 365 -237 465 -8 18 -17 30 -22 27 -5 -3 -6 3 -2 12 4 11 3 15 -4
11 -7 -5 -9 1 -5 15 4 16 2 19 -8 13 -8 -5 -11 -4 -7 3 4 5 -15 71 -43 146
-27 75 -50 144 -50 154 0 10 33 110 74 224 47 130 73 214 70 229 -4 18 -3 20
4 10 8 -11 11 -9 17 8 3 11 3 26 -1 32 -4 8 -3 9 4 5 11 -7 13 -3 16 37 1 6 4
14 8 17 10 8 59 143 53 148 -3 3 -5 -1 -5 -9 -1 -11 -3 -11 -10 2 -5 8 -10 57
-11 108 -2 91 -2 93 -39 137 -168 203 -139 442 76 644 39 36 99 85 134 108
100 66 309 165 349 166 44 1 54 14 74 91 14 56 14 66 -4 145 -10 47 -22 139
-25 205 -5 101 -3 137 16 225 12 58 32 132 45 164 13 33 21 64 18 69 -4 6 -1
7 7 2 10 -6 12 -4 6 11 -4 10 -4 15 0 11 4 -3 25 19 46 51 22 31 65 83 96 115
32 32 57 61 57 65 0 3 6 7 14 9 7 1 19 7 25 14 8 9 8 10 -3 4 -10 -5 -12 -4
-7 4 4 6 11 9 16 6 4 -3 34 11 65 30 32 19 73 39 91 45 19 7 32 15 29 20 -7
11 19 20 42 14 10 -2 32 0 48 5 43 13 48 13 74 -5z m852 -597 c45 -89 46 -122
4 -133 -35 -9 -52 9 -92 91 -39 81 -40 99 -12 118 36 26 58 9 100 -76z"/>
<path d="M3910 7259 c-19 -11 -40 -17 -47 -15 -19 8 -101 -91 -140 -167 -19
-38 -32 -72 -29 -75 3 -3 6 1 6 8 0 7 2 11 5 8 10 -9 -7 -38 -18 -31 -6 4 -8
-2 -5 -15 4 -12 3 -20 -1 -17 -13 7 -30 -63 -42 -167 -9 -74 -9 -123 0 -200
13 -118 39 -220 53 -212 6 4 7 -2 3 -16 -5 -16 -4 -20 5 -15 9 5 10 1 5 -15
-5 -15 -4 -20 4 -16 6 4 9 1 5 -7 -5 -15 42 -143 57 -153 5 -3 6 3 2 12 -5 12
7 8 40 -14 37 -26 58 -33 107 -36 54 -3 63 -1 76 19 17 26 55 45 89 45 14 0
25 5 25 10 0 6 15 10 33 10 19 0 55 6 81 14 44 13 46 13 34 -2 -11 -15 -11
-15 2 -5 19 14 57 79 41 69 -15 -10 -14 -1 4 35 9 16 20 27 24 25 4 -3 13 6
20 20 16 35 13 44 -5 14 l-14 -25 2 25 c2 14 6 27 10 30 15 12 -17 98 -55 143
-22 27 -33 47 -25 47 7 0 -28 27 -79 60 -110 71 -133 106 -142 217 -4 39 -4
70 0 68 7 -5 32 131 26 142 -3 4 -8 40 -11 78 -3 39 -11 72 -16 73 -6 2 -10
12 -10 22 0 35 -63 39 -120 9z"/>
<path d="M6512 7221 c2 -9 -9 -15 -32 -18 -19 -2 -42 -6 -50 -9 -8 -3 -17 -5
-20 -5 -12 -1 -39 -33 -50 -60 -7 -16 -16 -27 -20 -24 -4 3 -11 -55 -15 -128
-12 -219 -35 -263 -173 -328 -48 -23 -97 -50 -109 -61 -14 -13 -30 -19 -43
-15 -11 3 -17 1 -14 -4 3 -6 -6 -8 -23 -4 -19 3 -22 3 -10 -3 17 -7 17 -9 -2
-26 -12 -11 -21 -32 -21 -48 0 -15 -10 -38 -22 -50 -21 -21 -21 -22 -5 -87 21
-88 35 -123 46 -116 5 3 26 -6 47 -20 21 -14 48 -28 61 -31 13 -4 23 -10 23
-15 0 -5 13 -9 29 -9 35 0 74 -30 90 -67 11 -28 14 -29 86 -28 72 0 75 1 112
38 38 36 62 49 47 25 -4 -7 -3 -8 4 -4 6 4 9 13 6 20 -3 8 0 17 7 22 8 4 10 3
5 -4 -4 -7 -5 -12 -2 -12 8 0 80 109 105 159 13 23 18 40 12 36 -6 -3 -11 -2
-11 3 0 18 50 117 51 102 1 -31 40 98 55 185 11 59 14 120 11 175 -5 84 -33
198 -45 186 -3 -4 -18 19 -34 51 -30 64 -34 78 -17 67 7 -4 4 6 -5 22 -24 41
-77 102 -74 85z"/>
<path d="M5675 6369 c-6 -8 -43 -10 -134 -6 -69 3 -116 3 -104 1 12 -3 24 -12
27 -20 3 -9 1 -12 -4 -9 -6 3 -10 2 -10 -3 0 -16 -33 -24 -42 -10 -6 11 -8 10
-8 0 0 -7 -4 -10 -10 -7 -13 8 -52 -14 -45 -26 4 -5 16 -9 28 -8 20 1 20 2 -3
9 -24 8 -24 8 7 9 33 1 52 -13 31 -23 -7 -4 -3 -4 9 -2 12 2 23 0 25 -5 2 -5
28 -12 58 -15 30 -3 62 -8 70 -11 15 -6 29 -8 66 -11 12 -1 24 -11 27 -22 4
-14 14 -20 35 -20 21 0 36 -8 47 -22 15 -22 15 -21 9 22 -3 25 -5 61 -5 81 2
38 -21 94 -33 81 -4 -4 -14 1 -21 11 -9 13 -15 15 -20 6z m-53 -28 c-12 -7
-62 -4 -62 5 0 2 17 4 38 4 23 0 32 -3 24 -9z"/>
<path d="M4435 6209 c-11 -4 -14 -8 -6 -8 9 -1 10 -5 4 -13 -11 -15 8 -73 20
-62 4 4 7 0 7 -8 0 -9 7 -18 15 -22 13 -5 13 -2 -1 19 -12 18 -13 28 -4 44 10
20 23 25 80 34 15 3 8 5 -17 6 -23 0 -44 7 -46 14 -4 9 -6 8 -6 -2 -1 -9 -5
-10 -13 -3 -8 5 -22 6 -33 1z"/>
<path d="M4763 6213 c15 -2 39 -2 55 0 15 2 2 4 -28 4 -30 0 -43 -2 -27 -4z"/>
<path d="M5408 6213 c12 -2 32 -2 45 0 12 2 2 4 -23 4 -25 0 -35 -2 -22 -4z"/>
<path d="M4633 6203 c15 -2 37 -2 50 0 12 2 0 4 -28 4 -27 0 -38 -2 -22 -4z"/>
<path d="M3475 6109 c-22 -11 -32 -17 -22 -15 10 3 17 0 18 -9 1 -8 3 -19 4
-25 1 -5 3 -16 4 -24 1 -18 41 -28 58 -14 7 6 22 8 32 5 13 -3 21 1 24 12 4
20 -23 77 -32 65 -3 -5 -24 -10 -45 -10 l-39 -2 24 19 c30 23 25 23 -26 -2z"/>
<path d="M4460 6082 c0 -8 -5 -10 -12 -6 -10 5 -10 4 -1 -6 16 -17 35 -9 23
10 -7 11 -10 11 -10 2z"/>
<path d="M3623 5979 c9 -5 17 -18 18 -27 0 -11 2 -12 6 -4 6 15 -14 42 -31 42
-6 0 -3 -5 7 -11z"/>
<path d="M4085 5979 c-24 -13 -59 -65 -69 -103 -10 -40 25 -113 59 -122 41
-10 101 12 126 47 26 37 30 72 12 118 -24 62 -75 86 -128 60z"/>
<path d="M5979 5974 c-16 -5 -26 -21 -46 -74 -12 -31 2 -93 27 -115 10 -9 36
-19 57 -22 76 -10 124 67 96 154 -8 23 -22 44 -31 48 -24 9 -84 14 -103 9z"/>
<path d="M4725 5890 c13 -6 -3 -8 -49 -7 l-69 2 2 -60 c1 -32 9 -72 17 -87 8
-15 14 -37 14 -49 0 -21 1 -21 21 5 26 33 52 33 114 -3 132 -76 156 -175 61
-258 -34 -30 -41 -42 -36 -58 4 -11 6 -23 3 -27 -2 -5 1 -8 6 -8 6 0 11 -5 11
-11 0 -13 17 -30 52 -53 15 -10 26 -22 23 -26 -9 -15 107 -21 258 -14 83 4
141 10 127 14 l-25 6 25 7 c34 9 42 9 35 -3 -4 -6 28 -10 90 -10 91 0 96 -1
106 -24 14 -31 -4 -66 -34 -66 -18 0 -19 -2 -7 -10 8 -5 16 -14 16 -20 1 -5 2
-14 3 -18 2 -13 55 -38 87 -41 8 0 12 -5 9 -11 -8 -13 23 -12 184 5 194 20
349 47 325 56 -23 8 -13 13 61 28 34 6 54 6 62 -1 9 -7 35 -5 86 6 69 16 74
18 70 40 -3 13 2 37 11 54 10 19 14 42 10 61 -5 24 -3 31 10 31 9 0 16 7 16
15 0 9 31 31 74 52 41 20 73 40 70 44 -2 4 0 10 6 14 5 3 10 1 10 -6 0 -7 3
-9 8 -5 4 4 7 38 8 75 0 37 4 73 8 79 4 7 -7 20 -28 33 -37 22 -52 48 -16 29
11 -6 20 -8 20 -6 0 3 -19 15 -42 27 -76 38 -97 73 -65 109 9 11 8 11 -8 0
-58 -43 -85 -91 -85 -154 0 -39 -10 -77 -19 -72 -6 4 -5 -114 2 -149 5 -25
-37 -59 -77 -61 -17 -2 -71 -19 -119 -39 -149 -62 -223 -58 -215 12 3 25 -3
31 -52 57 -46 24 -71 30 -165 36 -60 5 -114 9 -120 10 -5 1 -33 2 -62 1 -46
-1 -51 -3 -46 -21 7 -26 -23 -60 -52 -60 -37 0 -163 69 -190 104 -29 39 -33
92 -9 138 9 17 11 27 4 23 -11 -7 -99 80 -100 98 0 4 -33 7 -74 7 -84 0 -101
11 -94 61 8 55 -74 99 -180 96 -33 -1 -55 1 -49 5 7 4 -4 7 -23 7 -29 0 -31
-2 -15 -9z m628 -616 c-5 -15 -20 -16 -26 0 -4 9 0 13 11 12 9 -2 16 -7 15
-12z"/>
<path d="M3347 5759 c-9 -6 -15 -14 -12 -19 3 -5 -6 -20 -19 -33 -47 -47 -62
-166 -29 -216 10 -14 16 -30 15 -34 -1 -5 2 -6 7 -3 5 4 15 0 23 -7 15 -14 97
-22 113 -10 6 5 10 14 11 21 3 37 5 43 12 38 5 -3 7 18 4 47 -3 42 1 61 22 99
14 26 20 47 14 45 -6 -1 -17 9 -24 23 -16 31 -58 49 -97 43 -19 -3 -27 -1 -22
6 8 13 5 13 -18 0z"/>
<path d="M6785 5720 c-8 -9 -15 -29 -15 -44 0 -16 -4 -25 -10 -21 -13 8 -13 3
1 -32 6 -15 13 -59 15 -97 5 -93 19 -109 81 -91 28 8 60 29 85 55 39 39 40 44
35 88 -9 77 -33 121 -75 140 -49 21 -99 22 -117 2z"/>
<path d="M3014 5643 c3 -6 1 -13 -6 -15 -8 -3 -7 -11 5 -28 11 -17 17 -20 18
-10 2 26 -2 45 -13 55 -8 7 -9 6 -4 -2z"/>
<path d="M7199 5620 c-1 -8 -1 -18 0 -22 0 -5 -4 -7 -11 -5 -7 1 -12 -7 -13
-18 0 -11 8 -21 18 -23 9 -2 17 2 17 8 0 6 -6 8 -12 4 -7 -4 -5 2 5 14 15 16
16 25 8 39 -8 14 -11 15 -12 3z"/>
<path d="M7133 5533 c-10 -40 -10 -42 8 -32 13 6 25 6 37 0 14 -8 19 -6 19 6
0 8 -11 20 -23 25 -13 6 -25 18 -26 27 -2 9 -9 -3 -15 -26z"/>
<path d="M3677 5486 c-32 -16 -36 -21 -23 -28 32 -18 12 -88 -25 -88 -11 0
-30 5 -42 11 -12 6 -3 -5 21 -26 23 -20 40 -40 37 -45 -6 -9 42 -50 59 -50 11
0 92 -30 164 -62 24 -10 41 -22 38 -27 -3 -5 40 -18 95 -30 112 -24 133 -25
124 -11 -3 6 2 10 12 11 52 2 80 10 96 30 22 27 22 41 -3 62 -25 21 -25 42 0
67 15 15 28 18 52 14 27 -4 30 -3 16 6 -10 6 -18 17 -18 25 0 15 -51 44 -110
64 -76 24 -190 22 -190 -4 0 -22 -38 -48 -63 -41 -40 10 -106 64 -126 105 -24
45 -50 49 -114 17z"/>
<path d="M4543 5434 c-26 -19 -63 -37 -80 -40 -18 -3 -30 -10 -28 -15 3 -4 12
-6 19 -3 9 3 13 -1 13 -12 -3 -26 44 -32 130 -18 39 7 82 11 95 8 21 -4 21 -4
3 5 -32 14 -48 38 -41 64 5 20 1 25 -29 34 -31 10 -39 8 -82 -23z"/>
<path d="M6935 5014 c-27 -15 -57 -35 -66 -46 -8 -11 -28 -21 -42 -21 -15 -1
-27 -5 -27 -9 0 -4 -6 -5 -14 -2 -7 3 -20 -2 -29 -10 -8 -8 -17 -13 -19 -11
-3 3 -45 -9 -94 -25 -283 -96 -572 -156 -939 -195 -206 -22 -766 -31 -976 -16
-557 40 -1074 157 -1380 311 -33 17 -65 28 -70 24 -6 -3 -33 -8 -60 -10 -26
-2 -65 -10 -85 -19 -24 -10 -40 -12 -44 -5 -3 5 -27 -48 -52 -118 -26 -70 -72
-196 -103 -281 -39 -106 -53 -156 -45 -161 7 -4 10 -31 8 -69 -3 -62 -11 -77
-23 -40 -4 11 -9 18 -11 16 -6 -6 78 -228 137 -361 23 -54 45 -94 47 -88 6 20
31 1 59 -46 15 -26 28 -51 30 -57 1 -5 6 -27 12 -48 5 -21 22 -57 38 -80 25
-38 53 -92 53 -104 0 -3 -9 5 -20 18 -19 23 -19 22 1 -13 22 -39 33 -50 22
-22 -5 13 -2 15 18 9 26 -8 39 -22 39 -43 0 -7 4 -11 9 -7 5 3 12 -3 16 -14 3
-10 14 -29 25 -41 22 -25 27 -66 9 -72 -6 -2 16 -38 50 -81 65 -80 103 -115
61 -56 l-25 34 32 -23 c17 -12 36 -22 41 -22 6 0 39 -27 74 -59 35 -33 76 -69
91 -81 15 -12 24 -26 21 -32 -4 -6 -3 -8 3 -5 5 4 25 -5 43 -18 19 -14 40 -25
48 -25 32 0 130 -73 124 -92 -1 -5 2 -7 6 -4 5 3 17 -3 27 -14 10 -11 22 -17
26 -14 5 3 9 2 9 -3 1 -26 83 -90 127 -99 23 -4 135 -82 123 -86 -35 -11 308
-116 493 -150 106 -20 156 -23 387 -23 229 0 282 3 390 22 209 37 534 141 524
167 -5 12 46 41 99 57 18 5 25 4 21 -2 -18 -29 219 111 255 150 13 14 20 20
16 12 -6 -9 -4 -12 4 -7 6 4 9 12 5 17 -8 13 25 38 51 39 25 0 173 128 273
235 153 164 274 346 407 613 99 198 148 317 140 342 -3 10 -1 21 4 25 7 4 8
-1 4 -12 -3 -10 -3 -16 0 -12 6 5 57 134 57 145 0 3 -4 2 -10 -1 -5 -3 -10 2
-11 12 -1 10 -2 32 -4 48 -1 17 2 41 6 53 7 19 -4 60 -48 182 -32 87 -62 156
-67 153 -5 -4 -6 -1 -2 6 10 16 -3 53 -16 45 -7 -4 -8 -2 -4 5 7 11 -1 42 -36
137 -14 40 -23 51 -36 47 -9 -2 -35 4 -57 13 -22 10 -49 19 -60 21 -11 2 -21
8 -23 13 -5 14 -10 12 -67 -16z m-3647 -986 c5 -7 39 -70 75 -140 190 -371
431 -631 779 -840 85 -51 94 -61 80 -93 -8 -17 -20 -25 -37 -25 -26 0 -127 47
-180 83 -22 16 -27 17 -16 4 12 -15 11 -17 -5 -17 -11 0 -30 9 -44 20 -14 11
-31 20 -38 20 -8 0 -12 9 -10 25 2 20 -9 34 -62 76 -36 29 -57 43 -46 31 18
-21 18 -21 -11 -13 -47 14 -66 27 -103 69 -37 44 -54 96 -23 71 10 -8 3 4 -16
26 -18 22 -58 70 -89 107 -31 37 -59 63 -62 58 -4 -6 -22 4 -42 22 -52 47 -89
128 -53 115 8 -4 -4 24 -27 61 -52 84 -148 281 -148 304 0 37 55 63 78 36z"/>
<path d="M5925 4979 c-23 -6 -19 -7 20 -4 37 3 43 2 23 -4 -44 -14 -50 -21
-37 -37 14 -18 3 -32 -12 -17 -8 8 -20 8 -35 3 -18 -7 -24 -6 -24 4 0 9 -7 12
-20 9 -11 -3 -20 -1 -20 5 0 7 -10 8 -30 2 -16 -5 -30 -6 -30 -3 0 3 -7 0 -16
-8 -10 -8 -46 -13 -99 -14 -53 -1 -89 -6 -99 -14 -9 -7 -16 -11 -16 -7 0 4
-13 0 -30 -9 -33 -17 -44 -19 -36 -6 4 5 -2 7 -11 5 -10 -2 -51 -5 -91 -7 -41
-2 -77 -8 -80 -13 -10 -13 -32 -16 -32 -5 0 6 -16 7 -35 4 -22 -3 -41 -1 -51
8 -13 10 -17 10 -24 0 -5 -10 -9 -10 -15 -2 -3 7 -14 9 -23 7 -43 -14 -420 -3
-449 12 -29 16 -34 15 -26 -5 6 -16 5 -17 -12 -3 -14 11 -17 11 -11 1 6 -10 4
-12 -10 -8 -11 4 -30 0 -44 -8 l-25 -14 23 -1 c13 0 20 -4 17 -10 -3 -5 1 -10
9 -10 9 0 16 7 16 15 0 18 17 20 22 4 2 -7 26 -12 55 -12 33 0 51 -4 50 -11
-1 -7 15 -11 41 -12 23 0 42 2 42 5 0 4 31 7 69 7 39 0 68 -3 65 -8 -3 -4 25
-7 61 -7 42 1 65 5 65 12 0 9 2 9 8 1 4 -6 32 -12 62 -13 30 -1 68 -4 84 -7
15 -2 33 -1 40 5 6 5 36 7 66 4 115 -10 200 -6 218 10 16 14 47 15 134 3 14
-2 39 3 54 11 16 8 42 13 59 13 62 -4 96 0 90 10 -3 6 2 10 13 10 10 0 22 3
26 7 3 4 16 8 28 10 12 2 28 9 37 16 12 10 14 9 8 -5 -4 -12 -2 -15 8 -11 8 3
17 -2 21 -10 3 -9 14 -14 25 -12 10 2 19 0 19 -6 0 -5 -12 -9 -27 -9 -14 0
-24 -3 -21 -6 4 -3 28 -2 55 2 26 4 42 9 35 11 -6 3 -10 9 -6 14 3 5 1 9 -5 9
-5 0 -12 -6 -14 -12 -3 -8 -6 -7 -6 4 -1 10 12 21 33 29 19 7 33 16 30 20 -2
4 0 10 6 14 19 12 -19 37 -50 33 -17 -3 -30 -2 -30 2 0 4 -13 6 -30 5 -16 -1
-27 2 -24 7 6 10 -40 9 -81 -3z"/>
<path d="M5740 4960 l-55 -7 45 -1 c25 0 63 3 85 7 33 7 34 9 10 8 -16 0 -55
-3 -85 -7z"/>
<path d="M4295 4920 c-3 -5 3 -10 15 -10 12 0 18 5 15 10 -3 6 -10 10 -15 10
-5 0 -12 -4 -15 -10z"/>
<path d="M4260 4875 c0 -8 4 -15 9 -15 5 0 11 7 15 15 3 9 0 15 -9 15 -8 0
-15 -7 -15 -15z"/>
<path d="M4488 4803 c12 -2 30 -2 40 0 9 3 -1 5 -23 4 -22 0 -30 -2 -17 -4z"/>
<path d="M5645 4799 c-25 -4 -11 -5 40 -2 44 3 82 7 84 9 7 7 -81 2 -124 -7z"/>
<path d="M4583 4793 c15 -2 37 -2 50 0 12 2 0 4 -28 4 -27 0 -38 -2 -22 -4z"/>
<path d="M4698 4783 c18 -2 45 -2 60 0 15 2 0 4 -33 4 -33 0 -45 -2 -27 -4z"/>
<path d="M5463 4783 c20 -2 54 -2 75 0 20 2 3 4 -38 4 -41 0 -58 -2 -37 -4z"/>
<path d="M4893 4773 c42 -2 112 -2 155 0 42 1 7 3 -78 3 -85 0 -120 -2 -77 -3z"/>
<path d="M5258 4773 c28 -2 76 -2 105 0 28 2 5 3 -53 3 -58 0 -81 -1 -52 -3z"/>
<path d="M3140 3686 c0 -7 52 -96 56 -96 2 0 -7 23 -21 50 -22 43 -35 60 -35
46z"/>
<path d="M3709 2669 c-27 -27 -49 -44 -50 -37 -1 14 -21 -29 -34 -72 -8 -25
-7 -25 13 -7 21 19 21 19 20 -14 -1 -37 28 -67 74 -76 15 -3 28 -9 28 -14 0
-5 12 -4 27 2 l28 10 -25 -28 c-18 -21 -15 -19 12 6 20 18 34 39 32 45 -2 6 4
21 15 33 81 87 47 203 -60 203 -25 0 -42 -10 -80 -51z"/>
<path d="M6401 2709 c-54 -22 -72 -87 -42 -150 11 -23 19 -45 16 -49 -2 -4 18
-29 45 -55 28 -27 50 -44 50 -37 0 7 19 22 43 33 48 24 82 82 75 130 -3 16 -1
26 4 23 10 -6 9 5 -2 31 l-9 20 -1 -20 -1 -20 -11 20 c-15 27 -58 65 -86 76
-29 11 -50 11 -81 -2z"/>
</g>
</svg>
