<svg width="473" height="572" viewBox="0 0 473 572" fill="none" xmlns="http://www.w3.org/2000/svg">
<ellipse cx="236.201" cy="239.571" rx="221" ry="81.5" fill="#FFB84D"/>
<ellipse cx="236.201" cy="239.571" rx="192" ry="57.5" fill="#76B8EC"/>
<path d="M210.401 1.2708C208.601 3.0708 208.901 6.4708 211.401 11.5708C213.201 15.2708 214.101 16.0708 216.401 16.0708C220.401 16.0708 221.501 13.2708 219.701 7.9708C217.201 0.870802 213.501 -1.8292 210.401 1.2708Z" fill="black"/>
<path d="M262.901 44.8708C260.701 47.3708 257.201 55.1708 257.201 57.8708C257.201 60.9708 261.401 62.9708 263.801 60.9708C265.601 59.4708 270.201 49.9708 270.201 47.6708C270.201 46.1708 267.001 43.0708 265.501 43.0708C265.001 43.0708 263.801 43.8708 262.901 44.8708Z" fill="black"/>
<path d="M131.501 47.9708C105.701 56.9708 87.7011 76.9708 80.6011 104.571C78.3011 113.771 78.1011 115.871 78.5011 130.071C79.0011 146.571 80.6011 155.771 85.7011 170.071C89.7011 181.171 96.5011 193.871 101.701 199.771C106.101 204.771 106.301 205.171 104.801 207.271C103.901 208.471 103.201 210.571 103.201 211.871C103.201 214.371 108.201 221.871 112.501 225.971L115.101 228.271L110.901 231.471C100.201 239.571 99.5011 247.871 108.701 255.871C112.701 259.471 116.801 260.871 119.101 259.371C122.401 257.271 121.601 254.771 116.101 249.971C110.801 245.271 110.701 245.171 112.201 242.571C113.001 241.071 115.401 238.971 117.401 237.771C121.001 235.771 121.201 235.771 123.101 237.471C124.201 238.471 125.401 240.571 125.701 242.071C127.301 249.271 134.301 251.571 154.701 251.471C171.901 251.471 183.201 249.171 184.601 245.371C184.901 244.571 181.901 237.571 177.901 229.771C171.501 217.071 170.401 215.471 167.501 214.571C164.501 213.771 164.001 212.971 162.101 206.871C160.901 203.071 158.501 197.171 156.701 193.671L153.601 187.371L157.301 183.271C161.701 178.271 167.901 166.471 171.701 156.071C173.701 150.471 174.301 147.371 173.901 143.671C173.501 139.471 174.001 137.571 176.801 131.971C181.201 123.171 183.201 114.571 183.201 103.571C183.201 87.9708 178.701 75.6708 169.601 66.2708C164.501 60.9708 164.201 60.8708 162.001 62.2708C160.201 63.4708 159.401 65.4708 158.401 71.6708C156.701 82.0708 153.301 91.5708 148.201 100.371C143.801 107.971 138.601 114.771 137.701 113.971C137.501 113.671 139.501 99.9708 142.201 83.4708C145.001 67.0708 147.201 51.9708 147.201 49.9708C147.201 44.0708 143.801 43.6708 131.501 47.9708ZM136.801 60.7708C136.401 63.4708 134.301 75.9708 132.101 88.6708C127.701 113.571 127.701 115.571 132.201 122.871C134.101 125.971 151.501 138.171 161.101 142.971C163.401 144.171 165.201 145.271 165.201 145.471C165.201 145.771 163.801 149.871 162.101 154.771C158.501 164.971 152.801 175.171 148.001 179.771L144.701 182.971L138.001 180.971C131.401 178.871 131.201 178.871 128.001 180.771C126.001 181.871 123.001 185.671 120.001 190.871C117.301 195.371 114.701 199.071 114.301 199.071C112.501 199.071 104.401 188.971 101.001 182.371C86.5011 154.771 83.2011 121.571 92.5011 96.9708C99.0011 79.8708 112.701 65.5708 129.701 58.2708C137.101 55.0708 137.501 55.2708 136.801 60.7708ZM173.201 93.0708C174.701 101.071 174.401 110.871 172.401 118.171C170.501 124.971 165.801 134.071 164.201 134.071C163.101 134.071 154.501 129.071 148.401 124.871L144.001 121.871L146.401 119.171C153.901 111.071 160.301 99.5708 164.801 86.1708L167.601 77.7708L169.901 82.7708C171.201 85.4708 172.601 90.1708 173.201 93.0708ZM140.001 191.271C140.042 191.285 140.082 191.299 140.122 191.312C146.403 193.471 146.519 193.511 149.401 199.871C151.001 203.371 153.101 209.171 154.001 212.771L155.701 219.271L153.201 221.271C150.601 223.471 136.101 230.571 132.701 231.371C131.201 231.771 128.801 229.771 122.501 222.571C117.901 217.471 114.201 212.871 114.201 212.371C114.201 211.771 115.901 210.171 118.001 208.871C120.501 207.071 123.201 203.671 126.501 197.671C129.101 192.971 131.801 189.071 132.401 189.071C133.001 189.071 136.501 190.071 140.001 191.271ZM169.201 233.071L173.201 241.071L170.701 241.671C167.001 242.571 148.501 242.671 141.901 241.671L136.101 240.871L146.901 235.571C152.801 232.571 159.101 229.071 160.701 227.671C162.401 226.271 164.001 225.171 164.401 225.071C164.801 225.071 167.001 228.671 169.201 233.071Z" fill="black"/>
<path fill-rule="evenodd" clip-rule="evenodd" d="M132.101 88.6708C134.301 75.9708 136.401 63.4708 136.801 60.7708C137.501 55.2708 137.101 55.0708 129.701 58.2708C112.701 65.5708 99.0011 79.8708 92.5011 96.9708C83.2011 121.571 86.5011 154.771 101.001 182.371C104.401 188.971 112.501 199.071 114.301 199.071C114.701 199.071 117.301 195.371 120.001 190.871C123.001 185.671 126.001 181.871 128.001 180.771C131.201 178.871 131.401 178.871 138.001 180.971L144.701 182.971L148.001 179.771C152.801 175.171 158.501 164.971 162.101 154.771C163.801 149.871 165.201 145.771 165.201 145.471C165.201 145.271 163.401 144.171 161.101 142.971C151.501 138.171 134.101 125.971 132.201 122.871C127.701 115.571 127.701 113.571 132.101 88.6708Z" fill="black"/>
<path fill-rule="evenodd" clip-rule="evenodd" d="M172.401 118.171C174.401 110.871 174.701 101.071 173.201 93.0708C172.601 90.1708 171.201 85.4708 169.901 82.7708L167.601 77.7708L164.801 86.1708C160.301 99.5708 153.901 111.071 146.401 119.171L144.001 121.871L148.401 124.871C154.501 129.071 163.101 134.071 164.201 134.071C165.801 134.071 170.501 124.971 172.401 118.171Z" fill="black"/>
<path fill-rule="evenodd" clip-rule="evenodd" d="M140.122 191.312L140.001 191.271C136.501 190.071 133.001 189.071 132.401 189.071C131.801 189.071 129.101 192.971 126.501 197.671C123.201 203.671 120.501 207.071 118.001 208.871C115.901 210.171 114.201 211.771 114.201 212.371C114.201 212.871 117.901 217.471 122.501 222.571C128.801 229.771 131.201 231.771 132.701 231.371C136.101 230.571 150.601 223.471 153.201 221.271L155.701 219.271L154.001 212.771C153.101 209.171 151.001 203.371 149.401 199.871C146.519 193.511 146.403 193.471 140.122 191.312Z" fill="black"/>
<path fill-rule="evenodd" clip-rule="evenodd" d="M173.201 241.071L169.201 233.071C167.001 228.671 164.801 225.071 164.401 225.071C164.001 225.171 162.401 226.271 160.701 227.671C159.101 229.071 152.801 232.571 146.901 235.571L136.101 240.871L141.901 241.671C148.501 242.671 167.001 242.571 170.701 241.671L173.201 241.071Z" fill="black"/>
<path fill-rule="evenodd" clip-rule="evenodd" d="M132.101 88.6708C134.301 75.9708 136.401 63.4708 136.801 60.7708C137.501 55.2708 137.101 55.0708 129.701 58.2708C112.701 65.5708 99.0011 79.8708 92.5011 96.9708C83.2011 121.571 86.5011 154.771 101.001 182.371C104.401 188.971 112.501 199.071 114.301 199.071C114.701 199.071 117.301 195.371 120.001 190.871C123.001 185.671 126.001 181.871 128.001 180.771C131.201 178.871 131.401 178.871 138.001 180.971L144.701 182.971L148.001 179.771C152.801 175.171 158.501 164.971 162.101 154.771C163.801 149.871 165.201 145.771 165.201 145.471C165.201 145.271 163.401 144.171 161.101 142.971C151.501 138.171 134.101 125.971 132.201 122.871C127.701 115.571 127.701 113.571 132.101 88.6708Z" fill="#D12020"/>
<path fill-rule="evenodd" clip-rule="evenodd" d="M172.401 118.171C174.401 110.871 174.701 101.071 173.201 93.0708C172.601 90.1708 171.201 85.4708 169.901 82.7708L167.601 77.7708L164.801 86.1708C160.301 99.5708 153.901 111.071 146.401 119.171L144.001 121.871L148.401 124.871C154.501 129.071 163.101 134.071 164.201 134.071C165.801 134.071 170.501 124.971 172.401 118.171Z" fill="#D12020"/>
<path fill-rule="evenodd" clip-rule="evenodd" d="M140.122 191.312L140.001 191.271C136.501 190.071 133.001 189.071 132.401 189.071C131.801 189.071 129.101 192.971 126.501 197.671C123.201 203.671 120.501 207.071 118.001 208.871C115.901 210.171 114.201 211.771 114.201 212.371C114.201 212.871 117.901 217.471 122.501 222.571C128.801 229.771 131.201 231.771 132.701 231.371C136.101 230.571 150.601 223.471 153.201 221.271L155.701 219.271L154.001 212.771C153.101 209.171 151.001 203.371 149.401 199.871C146.519 193.511 146.403 193.471 140.122 191.312Z" fill="#D12020"/>
<path fill-rule="evenodd" clip-rule="evenodd" d="M173.201 241.071L169.201 233.071C167.001 228.671 164.801 225.071 164.401 225.071C164.001 225.171 162.401 226.271 160.701 227.671C159.101 229.071 152.801 232.571 146.901 235.571L136.101 240.871L141.901 241.671C148.501 242.671 167.001 242.571 170.701 241.671L173.201 241.071Z" fill="#D12020"/>
<path d="M339.201 238.371C337.801 239.171 336.601 240.771 336.401 241.871C336.001 244.771 331.001 248.771 325.901 250.271C319.401 252.271 295.301 251.871 286.001 249.771C274.201 246.971 273.901 246.171 280.901 233.171C288.901 218.171 291.801 214.071 295.201 213.471C297.501 212.971 298.701 211.371 302.501 203.671C305.001 198.671 308.601 192.771 310.501 190.571L313.901 186.571L311.101 181.571C309.601 178.871 307.201 172.471 305.801 167.371C301.601 151.671 301.201 140.171 304.801 136.671C306.101 135.271 306.101 134.771 304.801 132.371C298.001 119.171 301.201 92.2708 311.301 77.0708C316.001 70.1708 325.301 61.3708 328.901 60.4708C334.201 59.0708 334.701 60.3708 334.801 76.6708C335.001 92.6708 336.401 99.7708 341.801 111.771C344.201 117.071 344.501 117.371 345.301 115.271C345.801 114.071 346.601 105.671 347.101 96.7708C349.001 65.4708 350.401 50.5708 351.401 49.2708C353.001 47.3708 355.001 47.7708 362.101 51.6708C382.301 62.7708 395.001 79.4708 400.401 101.971C403.201 113.871 402.601 132.171 398.801 146.571C393.701 165.971 381.501 186.971 366.601 201.771C357.401 210.871 357.301 211.071 358.701 213.671C360.401 217.071 359.201 219.771 353.301 225.571C351.001 227.671 349.201 229.771 349.201 230.071C349.201 230.471 350.401 231.371 351.901 232.171C355.401 233.971 360.201 241.671 360.201 245.371C360.201 254.471 349.001 262.671 330.201 267.571C323.601 269.271 320.801 268.971 319.801 266.371C318.401 262.771 320.201 261.171 329.001 258.571C343.601 254.071 352.901 247.971 350.601 244.271C348.801 241.371 340.401 237.171 339.201 238.371Z" fill="black"/>
<path d="M367.901 66.5708C377.201 73.9708 381.701 79.6708 386.701 90.1708C392.301 102.171 393.501 108.571 392.901 123.571C392.501 133.671 391.801 138.571 389.801 145.571C384.001 164.871 372.301 184.171 358.401 197.171C354.301 200.971 350.701 204.071 350.201 204.071C349.801 204.071 348.001 200.071 346.301 195.171C341.701 182.171 339.401 180.671 327.601 182.471L322.601 183.171L319.501 177.371C317.801 174.171 315.701 169.071 314.801 165.971C312.501 158.071 311.001 144.071 312.301 142.471C312.801 141.871 315.401 140.771 318.001 140.071C320.601 139.471 328.001 136.671 334.401 133.871C347.501 128.271 352.301 124.271 354.201 117.171C355.201 113.471 356.201 100.271 357.801 71.7708C358.201 65.3708 358.801 60.0708 359.101 60.0708C359.501 60.0708 363.401 62.9708 367.901 66.5708ZM327.501 99.1708C328.401 102.771 330.701 109.471 332.801 114.071C336.201 121.971 336.301 122.471 334.601 123.771C331.901 125.771 317.201 131.171 315.401 130.871C310.801 129.971 308.901 106.871 312.601 96.0708C315.101 88.8708 317.701 83.5708 321.601 78.4708L324.701 74.3708L325.301 83.4708C325.701 88.4708 326.701 95.5708 327.501 99.1708ZM338.801 201.071C341.401 208.571 342.801 211.271 345.601 213.671L349.301 216.871L339.701 224.571C330.301 232.271 330.201 232.271 327.001 231.071C322.501 229.271 313.401 224.271 309.501 221.371C306.401 219.071 306.301 218.971 307.601 215.271C309.301 210.471 314.901 199.371 317.301 195.871C318.701 193.871 320.601 192.971 324.501 192.271C334.901 190.271 335.001 190.371 338.801 201.071ZM299.301 224.671C301.301 227.071 311.901 234.071 319.101 237.671L325.501 240.971L321.601 241.671C316.601 242.671 298.101 242.671 291.901 241.671L287.101 240.971L291.901 231.971C294.501 227.071 297.001 223.071 297.301 223.071C297.701 223.071 298.601 223.771 299.301 224.671Z" fill="#D12020"/>
<path d="M221.601 97.7708C219.101 99.5708 219.401 102.271 223.301 109.971C225.401 114.271 228.001 118.171 228.901 118.471C229.701 118.871 231.601 118.371 232.901 117.471C235.901 115.571 235.601 114.071 230.501 104.571C226.801 97.7708 224.301 95.8708 221.601 97.7708Z" fill="black"/>
<path d="M212.801 150.171C185.501 151.171 182.201 151.771 182.201 156.171C182.201 159.871 185.901 160.871 196.201 159.971C209.601 158.771 262.301 158.771 277.201 159.971C288.801 160.871 289.801 160.871 291.601 159.171C293.701 156.971 293.101 153.471 290.401 152.671C287.701 151.871 264.101 150.171 248.201 149.771C240.201 149.571 224.301 149.671 212.801 150.171Z" fill="black"/>
<path d="M71.2011 176.171C69.8011 176.471 64.8011 178.671 60.0011 180.871C34.3011 192.871 18.0011 206.671 10.4011 222.771C8.00112 227.971 7.70112 229.771 7.70112 239.071C7.70112 249.271 7.80112 249.971 11.5011 257.271C13.9011 262.171 17.7011 267.571 22.1011 272.271L29.0011 279.671L14.5011 319.671C6.50112 341.571 -0.0988784 360.871 0.00112162 362.571C0.101122 371.071 22.0011 420.771 35.6011 443.471C49.7011 466.771 64.4011 485.171 79.9011 498.671C84.2011 502.371 87.8011 505.771 88.0011 506.171C88.2011 506.671 85.1011 516.171 81.2011 527.271C72.9011 550.871 71.9011 556.571 75.4011 562.571C80.0011 570.371 89.4011 573.871 97.5011 570.671C100.101 569.671 106.401 564.771 113.701 557.971C120.301 551.871 128.501 544.471 131.801 541.471L137.901 536.071L143.601 538.571C161.901 546.671 191.301 553.871 215.201 556.171C229.901 557.571 255.901 556.871 271.201 554.571C289.301 551.971 311.801 545.771 328.001 539.171L334.901 536.271L351.301 551.271C360.301 559.471 369.301 567.271 371.201 568.571C379.101 574.071 389.901 572.271 395.801 564.471C398.301 561.171 398.701 559.871 398.701 554.171C398.601 548.571 397.501 544.471 391.301 526.871L384.001 506.271L388.301 502.371C415.301 478.571 433.101 454.271 451.201 416.771C458.101 402.271 471.001 370.671 472.701 364.071C473.101 362.371 472.401 358.971 470.701 354.571C467.401 345.671 455.601 312.871 448.801 293.871L443.501 279.171L447.901 274.871C465.901 257.471 470.101 239.371 460.601 220.071C453.701 206.171 438.301 193.471 414.401 181.871C401.801 175.871 397.901 175.071 395.901 178.171C394.001 181.171 396.101 182.971 408.901 189.471C433.901 201.971 446.901 212.571 453.501 225.971C462.201 243.771 453.201 261.971 427.001 279.371C384.701 307.571 296.101 324.371 211.501 320.271C158.001 317.671 117.701 310.271 79.2011 295.871C50.3011 285.171 28.4011 269.671 19.7011 253.971C17.0011 249.071 16.7011 247.771 16.7011 239.071C16.7011 230.371 17.0011 229.071 19.7011 224.071C23.7011 216.771 34.0011 206.471 43.1011 200.571C50.5011 195.771 73.3011 184.071 75.2011 184.071C76.7011 183.071 78.2011 181.071 77.8011 178.671C77.1011 175.971 74.8011 175.071 71.2011 176.171ZM54.4011 295.171C102.801 319.771 182.201 332.871 260.501 329.271C328.501 326.071 376.201 315.771 417.201 295.271C426.801 290.471 435.001 286.471 435.301 286.271C436.101 285.971 440.801 298.371 453.401 333.571C460.401 353.271 463.201 362.271 462.801 364.271C461.601 370.371 447.701 403.671 439.801 419.271C414.601 469.371 383.001 501.771 337.601 524.471C305.801 540.271 274.401 547.471 236.701 547.471C212.701 547.471 199.501 545.971 178.701 540.571C160.801 535.971 153.101 533.071 135.701 524.571C89.4011 501.871 59.0011 470.871 33.3011 420.071C19.9011 393.671 8.60112 364.771 9.70112 360.171C10.1011 358.771 14.3011 346.771 19.1011 333.571C24.0011 320.371 29.9011 304.071 32.3011 297.371L36.7011 285.271L40.7011 287.671C42.9011 289.071 49.1011 292.371 54.4011 295.171ZM117.001 525.571C123.201 529.271 128.101 532.471 128.001 532.571C127.801 532.671 122.101 537.871 115.201 544.171C95.6099 562.071 95.6006 562.071 91.372 562.071C91.3485 562.071 91.3249 562.071 91.3011 562.071C88.2011 562.071 86.9011 561.471 84.8011 558.971C83.4011 557.271 82.2011 555.271 82.2011 554.571C82.2011 553.371 91.0011 526.871 94.9011 516.371L96.4011 512.271L101.101 515.471C103.601 517.271 110.801 521.771 117.001 525.571ZM383.701 533.471C389.501 550.671 390.501 554.371 389.701 556.771C388.501 560.071 383.301 562.971 379.601 562.271C377.401 561.871 347.701 536.271 345.701 533.171C345.401 532.571 347.201 530.871 349.801 529.371C352.301 527.771 359.201 523.371 365.101 519.571C370.901 515.671 376.001 512.571 376.301 512.671C376.601 512.871 379.901 522.171 383.701 533.471Z" fill="#FFB84D"/>
<path d="M46.8011 395.171C45.5011 397.071 45.5011 397.871 47.3011 402.471C56.2011 424.871 76.2011 453.471 96.6011 472.771C110.401 485.871 129.601 499.371 140.001 503.271C143.601 504.671 146.201 503.171 146.201 499.571C146.201 497.771 144.201 496.171 136.801 491.771C123.301 483.671 112.201 475.171 100.901 464.171C83.7011 447.571 69.9011 428.471 59.1011 406.671C52.1011 392.371 50.1011 390.571 46.8011 395.171Z" fill="black"/>
<path fill-rule="evenodd" clip-rule="evenodd" d="M260.501 329.271C182.201 332.871 102.801 319.771 54.4011 295.171C49.1011 292.371 42.9011 289.071 40.7011 287.671L36.7011 285.271L32.3011 297.371C29.9011 304.071 24.0011 320.371 19.1011 333.571C14.3011 346.771 10.1011 358.771 9.70112 360.171C8.60112 364.771 19.9011 393.671 33.3011 420.071C59.0011 470.871 89.4011 501.871 135.701 524.571C153.101 533.071 160.801 535.971 178.701 540.571C199.501 545.971 212.701 547.471 236.701 547.471C274.401 547.471 305.801 540.271 337.601 524.471C383.001 501.771 414.601 469.371 439.801 419.271C447.701 403.671 461.601 370.371 462.801 364.271C463.201 362.271 460.401 353.271 453.401 333.571C440.801 298.371 436.101 285.971 435.301 286.271C435.153 286.369 433.087 287.391 429.879 288.976C426.578 290.608 422.07 292.836 417.201 295.271C376.201 315.771 328.501 326.071 260.501 329.271ZM46.8011 395.171C45.5011 397.071 45.5011 397.871 47.3011 402.471C56.2011 424.871 76.2011 453.471 96.6011 472.771C110.401 485.871 129.601 499.371 140.001 503.271C143.601 504.671 146.201 503.171 146.201 499.571C146.201 497.771 144.201 496.171 136.801 491.771C123.301 483.671 112.201 475.171 100.901 464.171C83.7011 447.571 69.9011 428.471 59.1011 406.671C52.1011 392.371 50.1011 390.571 46.8011 395.171Z" fill="#FFB84D"/>
<path fill-rule="evenodd" clip-rule="evenodd" d="M389.701 556.771C390.501 554.371 389.501 550.671 383.701 533.471C379.901 522.171 376.601 512.871 376.301 512.671C376.001 512.571 370.901 515.671 365.101 519.571C360.542 522.507 355.385 525.803 352.123 527.887C351.164 528.499 350.369 529.007 349.801 529.371C347.201 530.871 345.401 532.571 345.701 533.171C347.701 536.271 377.401 561.871 379.601 562.271C383.301 562.971 388.501 560.071 389.701 556.771Z" fill="#FFB84D"/>
<path fill-rule="evenodd" clip-rule="evenodd" d="M128.001 532.571C128.101 532.471 123.201 529.271 117.001 525.571C110.801 521.771 103.601 517.271 101.101 515.471L96.4011 512.271L94.9011 516.371C91.0011 526.871 82.2011 553.371 82.2011 554.571C82.2011 555.271 83.4011 557.271 84.8011 558.971C86.9011 561.471 88.2011 562.071 91.3011 562.071H91.372C95.6006 562.071 95.6099 562.071 115.201 544.171C122.101 537.871 127.801 532.671 128.001 532.571Z" fill="#FFB84D"/>
<path d="M71.2011 176.171C69.8011 176.471 64.8011 178.671 60.0011 180.871C34.3011 192.871 18.0011 206.671 10.4011 222.771C8.00112 227.971 7.70112 229.771 7.70112 239.071C7.70112 249.271 7.80112 249.971 11.5011 257.271C13.9011 262.171 17.7011 267.571 22.1011 272.271L29.0011 279.671L14.5011 319.671C6.50112 341.571 -0.0988784 360.871 0.00112162 362.571C0.101122 371.071 22.0011 420.771 35.6011 443.471C49.7011 466.771 64.4011 485.171 79.9011 498.671C84.2011 502.371 87.8011 505.771 88.0011 506.171C88.2011 506.671 85.1011 516.171 81.2011 527.271C72.9011 550.871 71.9011 556.571 75.4011 562.571C80.0011 570.371 89.4011 573.871 97.5011 570.671C100.101 569.671 106.401 564.771 113.701 557.971C120.301 551.871 128.501 544.471 131.801 541.471L137.901 536.071L143.601 538.571C161.901 546.671 191.301 553.871 215.201 556.171C229.901 557.571 255.901 556.871 271.201 554.571C289.301 551.971 311.801 545.771 328.001 539.171L334.901 536.271L351.301 551.271C360.301 559.471 369.301 567.271 371.201 568.571C379.101 574.071 389.901 572.271 395.801 564.471C398.301 561.171 398.701 559.871 398.701 554.171C398.601 548.571 397.501 544.471 391.301 526.871L384.001 506.271L388.301 502.371C415.301 478.571 433.101 454.271 451.201 416.771C458.101 402.271 471.001 370.671 472.701 364.071C473.101 362.371 472.401 358.971 470.701 354.571C467.401 345.671 455.601 312.871 448.801 293.871L443.501 279.171L447.901 274.871C465.901 257.471 470.101 239.371 460.601 220.071C453.701 206.171 438.301 193.471 414.401 181.871C401.801 175.871 397.901 175.071 395.901 178.171C394.001 181.171 396.101 182.971 408.901 189.471C433.901 201.971 446.901 212.571 453.501 225.971C462.201 243.771 453.201 261.971 427.001 279.371C384.701 307.571 296.101 324.371 211.501 320.271C158.001 317.671 117.701 310.271 79.2011 295.871C50.3011 285.171 28.4011 269.671 19.7011 253.971C17.0011 249.071 16.7011 247.771 16.7011 239.071C16.7011 230.371 17.0011 229.071 19.7011 224.071C23.7011 216.771 34.0011 206.471 43.1011 200.571C50.5011 195.771 73.3011 184.071 75.2011 184.071C76.7011 183.071 78.2011 181.071 77.8011 178.671C77.1011 175.971 74.8011 175.071 71.2011 176.171ZM54.4011 295.171C102.801 319.771 182.201 332.871 260.501 329.271C328.501 326.071 376.201 315.771 417.201 295.271C426.801 290.471 435.001 286.471 435.301 286.271C436.101 285.971 440.801 298.371 453.401 333.571C460.401 353.271 463.201 362.271 462.801 364.271C461.601 370.371 447.701 403.671 439.801 419.271C414.601 469.371 383.001 501.771 337.601 524.471C305.801 540.271 274.401 547.471 236.701 547.471C212.701 547.471 199.501 545.971 178.701 540.571C160.801 535.971 153.101 533.071 135.701 524.571C89.4011 501.871 59.0011 470.871 33.3011 420.071C19.9011 393.671 8.60112 364.771 9.70112 360.171C10.1011 358.771 14.3011 346.771 19.1011 333.571C24.0011 320.371 29.9011 304.071 32.3011 297.371L36.7011 285.271L40.7011 287.671C42.9011 289.071 49.1011 292.371 54.4011 295.171ZM117.001 525.571C123.201 529.271 128.101 532.471 128.001 532.571C127.801 532.671 122.101 537.871 115.201 544.171C95.6099 562.071 95.6006 562.071 91.372 562.071C91.3485 562.071 91.3249 562.071 91.3011 562.071C88.2011 562.071 86.9011 561.471 84.8011 558.971C83.4011 557.271 82.2011 555.271 82.2011 554.571C82.2011 553.371 91.0011 526.871 94.9011 516.371L96.4011 512.271L101.101 515.471C103.601 517.271 110.801 521.771 117.001 525.571ZM383.701 533.471C389.501 550.671 390.501 554.371 389.701 556.771C388.501 560.071 383.301 562.971 379.601 562.271C377.401 561.871 347.701 536.271 345.701 533.171C345.401 532.571 347.201 530.871 349.801 529.371C352.301 527.771 359.201 523.371 365.101 519.571C370.901 515.671 376.001 512.571 376.301 512.671C376.601 512.871 379.901 522.171 383.701 533.471Z" fill="black"/>
<path d="M188.501 177.571C180.201 178.271 173.601 179.271 172.701 180.071C170.501 181.871 170.901 184.771 173.501 186.471C175.401 187.671 178.101 187.671 192.201 186.471C213.001 184.871 250.801 184.671 276.401 186.271C292.701 187.171 296.401 187.171 297.701 186.071C299.901 184.171 299.201 180.771 296.201 179.471C289.201 176.271 218.101 174.971 188.501 177.571Z" fill="black"/>
<path d="M213.701 196.071C200.401 196.871 176.701 199.571 173.001 200.671C170.401 201.471 169.601 205.871 171.501 207.871C173.001 209.271 174.501 209.271 189.401 207.471C208.801 205.171 263.201 204.871 279.001 206.871C285.601 207.771 288.801 207.771 290.201 207.071C292.501 205.871 292.901 201.871 290.901 200.271C287.401 197.371 238.001 194.671 213.701 196.071Z" fill="black"/>
<path d="M384.701 199.671C383.801 200.571 383.201 202.471 383.401 203.871C383.701 205.971 385.001 206.971 392.201 209.971C412.701 218.671 423.301 226.371 426.701 235.371C429.301 242.271 427.701 246.871 420.401 254.071C403.701 270.371 356.501 284.971 299.701 291.271C283.501 293.171 274.601 293.471 238.701 293.471C211.301 293.571 192.201 293.171 183.701 292.271C106.801 284.671 51.5011 265.371 45.0011 243.771C41.7011 232.871 53.0011 221.571 77.6011 211.071C84.5011 208.071 86.9011 206.571 87.6011 204.671C88.7011 201.871 87.0011 199.071 84.3011 199.071C79.0011 199.071 57.2011 209.971 48.7011 216.871C26.0011 235.271 32.3011 257.471 64.9011 273.871C86.7011 284.971 125.101 294.671 165.201 299.471C213.101 305.271 271.501 304.671 319.001 297.971C363.301 291.771 400.601 280.171 419.801 266.471C446.901 247.271 442.001 223.971 407.201 206.571C400.801 203.371 388.101 198.071 386.701 198.071C386.501 198.071 385.601 198.771 384.701 199.671Z" fill="black"/>
<path d="M225.401 215.671C223.001 217.371 222.501 220.271 224.501 221.771C225.101 222.371 231.601 223.071 238.701 223.371C251.501 223.871 263.201 225.671 263.201 227.071C263.201 227.471 261.401 228.571 259.201 229.571C254.801 231.571 249.801 236.571 248.701 240.071C246.301 247.471 253.101 254.971 266.401 259.671C271.201 261.371 274.201 260.171 274.201 256.671C274.201 253.771 271.901 251.771 266.001 249.571C261.501 247.871 257.201 244.771 257.201 243.171C257.201 241.871 260.301 239.471 265.101 237.071C277.001 231.071 277.401 222.471 265.901 218.271C254.801 214.071 229.901 212.471 225.401 215.671Z" fill="black"/>
<path d="M373.401 216.771C371.601 217.471 370.101 220.671 370.801 222.571C371.201 223.471 373.801 225.371 376.601 226.771C397.701 237.371 397.001 246.471 374.401 256.571C367.401 259.671 365.501 261.971 367.201 265.071C368.701 267.871 372.601 267.571 380.101 264.071C397.401 255.871 404.401 245.571 399.801 234.771C396.901 227.771 378.301 215.071 373.401 216.771Z" fill="black"/>
<path d="M87.2011 221.371C84.8011 222.571 80.6011 225.571 78.1011 228.071C69.6011 236.271 69.4011 244.971 77.3011 253.571C82.5011 259.271 86.5011 260.771 89.2011 258.071C90.3011 256.971 91.2011 255.571 91.2011 254.871C91.2011 254.271 88.9011 251.671 86.1011 249.171C78.1011 241.971 79.3011 236.971 90.8011 229.971C97.2011 226.071 98.9011 222.771 95.6011 220.371C93.3011 218.671 92.6011 218.771 87.2011 221.371Z" fill="black"/>
<path d="M191.801 226.571C188.501 229.871 189.801 232.471 196.401 236.171C206.301 241.671 206.601 244.371 197.801 249.171C191.201 252.771 189.801 254.371 190.601 257.471C191.501 261.171 196.301 260.971 203.201 256.771C217.501 248.271 216.401 235.571 200.701 227.771C195.401 225.171 193.501 224.871 191.801 226.571Z" fill="black"/>
<path d="M147.401 267.271C145.801 268.871 145.901 272.571 147.501 273.971C149.301 275.471 174.401 279.671 192.401 281.571C216.901 284.071 270.001 282.971 274.001 279.771C275.701 278.471 275.501 274.571 273.701 273.071C272.501 272.071 268.701 272.071 255.101 273.071C225.501 275.271 184.801 272.971 159.401 267.571C150.601 265.771 149.001 265.671 147.401 267.271Z" fill="black"/>
</svg>
